<mxfile host="app.diagrams.net" modified="2023-04-05T12:12:54.595Z" agent="Mozilla/5.0 (Windows NT 10.0; Win64; x64) AppleWebKit/537.36 (KHTML, like Gecko) Chrome/111.0.0.0 Safari/537.36" etag="Y4Ul-QBJ43gnRfw1DK2A" version="21.1.4" type="device">
  <diagram name="Page-1" id="fOWAgNkVk0fnSY1xUM_Z">
    <mxGraphModel dx="2474" dy="805" grid="1" gridSize="10" guides="1" tooltips="1" connect="1" arrows="1" fold="1" page="1" pageScale="1" pageWidth="827" pageHeight="1169" math="0" shadow="0">
      <root>
        <mxCell id="0" />
        <mxCell id="1" parent="0" />
        <mxCell id="mHJllfPnjOfQcpnpI9sL-53" value="" style="edgeStyle=orthogonalEdgeStyle;rounded=0;orthogonalLoop=1;jettySize=auto;html=1;" parent="1" source="mHJllfPnjOfQcpnpI9sL-4" target="mHJllfPnjOfQcpnpI9sL-52" edge="1">
          <mxGeometry relative="1" as="geometry" />
        </mxCell>
        <mxCell id="mHJllfPnjOfQcpnpI9sL-59" style="edgeStyle=orthogonalEdgeStyle;rounded=0;orthogonalLoop=1;jettySize=auto;html=1;entryX=0;entryY=0.5;entryDx=0;entryDy=0;" parent="1" source="mHJllfPnjOfQcpnpI9sL-4" target="mHJllfPnjOfQcpnpI9sL-56" edge="1">
          <mxGeometry relative="1" as="geometry" />
        </mxCell>
        <mxCell id="mHJllfPnjOfQcpnpI9sL-4" value="Processus3DSensor&amp;amp;Mag" style="rounded=1;whiteSpace=wrap;html=1;" parent="1" vertex="1">
          <mxGeometry y="370" width="150" height="30" as="geometry" />
        </mxCell>
        <mxCell id="mHJllfPnjOfQcpnpI9sL-24" value="" style="edgeStyle=orthogonalEdgeStyle;rounded=0;orthogonalLoop=1;jettySize=auto;html=1;" parent="1" source="mHJllfPnjOfQcpnpI9sL-25" target="mHJllfPnjOfQcpnpI9sL-27" edge="1">
          <mxGeometry relative="1" as="geometry" />
        </mxCell>
        <mxCell id="mHJllfPnjOfQcpnpI9sL-25" value="PiloteMoteurDC" style="rounded=1;whiteSpace=wrap;html=1;" parent="1" vertex="1">
          <mxGeometry x="420" y="170" width="100" height="30" as="geometry" />
        </mxCell>
        <mxCell id="mHJllfPnjOfQcpnpI9sL-26" value="" style="edgeStyle=orthogonalEdgeStyle;rounded=0;orthogonalLoop=1;jettySize=auto;html=1;" parent="1" source="mHJllfPnjOfQcpnpI9sL-27" target="mHJllfPnjOfQcpnpI9sL-28" edge="1">
          <mxGeometry relative="1" as="geometry" />
        </mxCell>
        <mxCell id="mHJllfPnjOfQcpnpI9sL-27" value="InterfaceMoteurDC" style="rounded=1;whiteSpace=wrap;html=1;" parent="1" vertex="1">
          <mxGeometry x="415" y="270" width="110" height="30" as="geometry" />
        </mxCell>
        <mxCell id="mHJllfPnjOfQcpnpI9sL-55" value="" style="edgeStyle=orthogonalEdgeStyle;rounded=0;orthogonalLoop=1;jettySize=auto;html=1;" parent="1" source="mHJllfPnjOfQcpnpI9sL-28" target="mHJllfPnjOfQcpnpI9sL-54" edge="1">
          <mxGeometry relative="1" as="geometry" />
        </mxCell>
        <mxCell id="mHJllfPnjOfQcpnpI9sL-58" style="edgeStyle=orthogonalEdgeStyle;rounded=0;orthogonalLoop=1;jettySize=auto;html=1;" parent="1" source="mHJllfPnjOfQcpnpI9sL-28" edge="1">
          <mxGeometry relative="1" as="geometry">
            <mxPoint x="310" y="385" as="targetPoint" />
          </mxGeometry>
        </mxCell>
        <mxCell id="mHJllfPnjOfQcpnpI9sL-28" value="ProcessusBarrerDebarrer" style="rounded=1;whiteSpace=wrap;html=1;" parent="1" vertex="1">
          <mxGeometry x="390" y="370" width="160" height="30" as="geometry" />
        </mxCell>
        <mxCell id="mHJllfPnjOfQcpnpI9sL-67" style="edgeStyle=orthogonalEdgeStyle;rounded=0;orthogonalLoop=1;jettySize=auto;html=1;entryX=0.25;entryY=0;entryDx=0;entryDy=0;" parent="1" source="mHJllfPnjOfQcpnpI9sL-29" target="mHJllfPnjOfQcpnpI9sL-4" edge="1">
          <mxGeometry relative="1" as="geometry">
            <Array as="points">
              <mxPoint x="-7" y="350" />
              <mxPoint x="38" y="350" />
            </Array>
          </mxGeometry>
        </mxCell>
        <mxCell id="mHJllfPnjOfQcpnpI9sL-29" value="&lt;span style=&quot;color: rgb(0, 0, 0); font-family: Helvetica; font-size: 12px; font-style: normal; font-variant-ligatures: normal; font-variant-caps: normal; font-weight: 400; letter-spacing: normal; orphans: 2; text-indent: 0px; text-transform: none; widows: 2; word-spacing: 0px; -webkit-text-stroke-width: 0px; background-color: rgb(251, 251, 251); text-decoration-thickness: initial; text-decoration-style: initial; text-decoration-color: initial; float: none; display: inline !important;&quot;&gt;InterfaceI2C&lt;/span&gt;" style="text;whiteSpace=wrap;html=1;align=center;" parent="1" vertex="1">
          <mxGeometry x="-45" y="265" width="75" height="40" as="geometry" />
        </mxCell>
        <mxCell id="mHJllfPnjOfQcpnpI9sL-34" value="" style="edgeStyle=orthogonalEdgeStyle;rounded=0;orthogonalLoop=1;jettySize=auto;html=1;" parent="1" source="mHJllfPnjOfQcpnpI9sL-31" target="mHJllfPnjOfQcpnpI9sL-33" edge="1">
          <mxGeometry relative="1" as="geometry" />
        </mxCell>
        <mxCell id="mHJllfPnjOfQcpnpI9sL-31" value="Pilote 3D&amp;amp;M" style="rounded=1;whiteSpace=wrap;html=1;" parent="1" vertex="1">
          <mxGeometry x="45" y="170" width="90" height="30" as="geometry" />
        </mxCell>
        <mxCell id="mHJllfPnjOfQcpnpI9sL-70" style="edgeStyle=orthogonalEdgeStyle;rounded=0;orthogonalLoop=1;jettySize=auto;html=1;entryX=0.25;entryY=0;entryDx=0;entryDy=0;" parent="1" source="mHJllfPnjOfQcpnpI9sL-33" target="mHJllfPnjOfQcpnpI9sL-4" edge="1">
          <mxGeometry relative="1" as="geometry">
            <Array as="points">
              <mxPoint x="90" y="350" />
              <mxPoint x="38" y="350" />
            </Array>
          </mxGeometry>
        </mxCell>
        <mxCell id="mHJllfPnjOfQcpnpI9sL-33" value="Interface 3D&amp;amp;M" style="rounded=1;whiteSpace=wrap;html=1;" parent="1" vertex="1">
          <mxGeometry x="45" y="270" width="90" height="30" as="geometry" />
        </mxCell>
        <mxCell id="mHJllfPnjOfQcpnpI9sL-36" value="" style="edgeStyle=orthogonalEdgeStyle;rounded=0;orthogonalLoop=1;jettySize=auto;html=1;" parent="1" source="mHJllfPnjOfQcpnpI9sL-37" target="mHJllfPnjOfQcpnpI9sL-38" edge="1">
          <mxGeometry relative="1" as="geometry" />
        </mxCell>
        <mxCell id="mHJllfPnjOfQcpnpI9sL-37" value="Pilote SPI" style="rounded=1;whiteSpace=wrap;html=1;" parent="1" vertex="1">
          <mxGeometry x="-200" y="170" width="90" height="30" as="geometry" />
        </mxCell>
        <mxCell id="mHJllfPnjOfQcpnpI9sL-71" style="edgeStyle=orthogonalEdgeStyle;rounded=0;orthogonalLoop=1;jettySize=auto;html=1;entryX=0.25;entryY=0;entryDx=0;entryDy=0;" parent="1" source="mHJllfPnjOfQcpnpI9sL-38" target="mHJllfPnjOfQcpnpI9sL-4" edge="1">
          <mxGeometry relative="1" as="geometry">
            <Array as="points">
              <mxPoint x="-150" y="340" />
              <mxPoint x="38" y="340" />
            </Array>
          </mxGeometry>
        </mxCell>
        <mxCell id="mHJllfPnjOfQcpnpI9sL-72" style="edgeStyle=orthogonalEdgeStyle;rounded=0;orthogonalLoop=1;jettySize=auto;html=1;entryX=0.5;entryY=0;entryDx=0;entryDy=0;" parent="1" source="mHJllfPnjOfQcpnpI9sL-38" target="mHJllfPnjOfQcpnpI9sL-68" edge="1">
          <mxGeometry relative="1" as="geometry">
            <Array as="points">
              <mxPoint x="-150" y="340" />
              <mxPoint x="-65" y="340" />
            </Array>
          </mxGeometry>
        </mxCell>
        <mxCell id="mHJllfPnjOfQcpnpI9sL-74" style="edgeStyle=orthogonalEdgeStyle;rounded=0;orthogonalLoop=1;jettySize=auto;html=1;entryX=0.5;entryY=0;entryDx=0;entryDy=0;" parent="1" source="mHJllfPnjOfQcpnpI9sL-38" target="mHJllfPnjOfQcpnpI9sL-73" edge="1">
          <mxGeometry relative="1" as="geometry">
            <Array as="points">
              <mxPoint x="-150" y="340" />
              <mxPoint x="-195" y="340" />
            </Array>
          </mxGeometry>
        </mxCell>
        <mxCell id="mHJllfPnjOfQcpnpI9sL-38" value="Interface SPI" style="rounded=1;whiteSpace=wrap;html=1;" parent="1" vertex="1">
          <mxGeometry x="-200" y="270" width="90" height="30" as="geometry" />
        </mxCell>
        <mxCell id="mHJllfPnjOfQcpnpI9sL-49" style="edgeStyle=orthogonalEdgeStyle;rounded=0;orthogonalLoop=1;jettySize=auto;html=1;entryX=0.5;entryY=0;entryDx=0;entryDy=0;" parent="1" source="mHJllfPnjOfQcpnpI9sL-44" target="mHJllfPnjOfQcpnpI9sL-47" edge="1">
          <mxGeometry relative="1" as="geometry">
            <Array as="points">
              <mxPoint x="180" y="220.02" />
              <mxPoint x="245" y="220.02" />
            </Array>
          </mxGeometry>
        </mxCell>
        <mxCell id="mHJllfPnjOfQcpnpI9sL-44" value="Pilote LR" style="rounded=1;whiteSpace=wrap;html=1;" parent="1" vertex="1">
          <mxGeometry x="150" y="170" width="60" height="30" as="geometry" />
        </mxCell>
        <mxCell id="mHJllfPnjOfQcpnpI9sL-50" value="" style="edgeStyle=orthogonalEdgeStyle;rounded=0;orthogonalLoop=1;jettySize=auto;html=1;" parent="1" source="mHJllfPnjOfQcpnpI9sL-45" target="mHJllfPnjOfQcpnpI9sL-47" edge="1">
          <mxGeometry relative="1" as="geometry" />
        </mxCell>
        <mxCell id="mHJllfPnjOfQcpnpI9sL-45" value="Pilote LG" style="rounded=1;whiteSpace=wrap;html=1;" parent="1" vertex="1">
          <mxGeometry x="215" y="170" width="60" height="30" as="geometry" />
        </mxCell>
        <mxCell id="mHJllfPnjOfQcpnpI9sL-51" value="" style="edgeStyle=orthogonalEdgeStyle;rounded=0;orthogonalLoop=1;jettySize=auto;html=1;" parent="1" source="mHJllfPnjOfQcpnpI9sL-46" target="mHJllfPnjOfQcpnpI9sL-47" edge="1">
          <mxGeometry relative="1" as="geometry">
            <Array as="points">
              <mxPoint x="310" y="220.02" />
              <mxPoint x="245" y="220.02" />
            </Array>
          </mxGeometry>
        </mxCell>
        <mxCell id="mHJllfPnjOfQcpnpI9sL-46" value="Pilote LB" style="rounded=1;whiteSpace=wrap;html=1;" parent="1" vertex="1">
          <mxGeometry x="280" y="170" width="60" height="30" as="geometry" />
        </mxCell>
        <mxCell id="mHJllfPnjOfQcpnpI9sL-57" value="" style="edgeStyle=orthogonalEdgeStyle;rounded=0;orthogonalLoop=1;jettySize=auto;html=1;" parent="1" source="mHJllfPnjOfQcpnpI9sL-47" target="mHJllfPnjOfQcpnpI9sL-56" edge="1">
          <mxGeometry relative="1" as="geometry" />
        </mxCell>
        <mxCell id="mHJllfPnjOfQcpnpI9sL-47" value="InterfaceRGB" style="rounded=1;whiteSpace=wrap;html=1;" parent="1" vertex="1">
          <mxGeometry x="190" y="260.02" width="110" height="30" as="geometry" />
        </mxCell>
        <mxCell id="mHJllfPnjOfQcpnpI9sL-52" value="&lt;span style=&quot;color: rgb(0, 0, 0); font-family: Helvetica; font-size: 12px; font-style: normal; font-variant-ligatures: normal; font-variant-caps: normal; font-weight: 400; letter-spacing: normal; orphans: 2; text-indent: 0px; text-transform: none; widows: 2; word-spacing: 0px; -webkit-text-stroke-width: 0px; background-color: rgb(251, 251, 251); text-decoration-thickness: initial; text-decoration-style: initial; text-decoration-color: initial; float: none; display: inline !important;&quot;&gt;ProcessusCOMAvecServer&lt;/span&gt;" style="text;whiteSpace=wrap;html=1;align=center;" parent="1" vertex="1">
          <mxGeometry x="-155" y="440" width="180" height="40" as="geometry" />
        </mxCell>
        <mxCell id="mHJllfPnjOfQcpnpI9sL-54" value="&lt;span style=&quot;color: rgb(0, 0, 0); font-family: Helvetica; font-size: 12px; font-style: normal; font-variant-ligatures: normal; font-variant-caps: normal; font-weight: 400; letter-spacing: normal; orphans: 2; text-indent: 0px; text-transform: none; widows: 2; word-spacing: 0px; -webkit-text-stroke-width: 0px; background-color: rgb(251, 251, 251); text-decoration-thickness: initial; text-decoration-style: initial; text-decoration-color: initial; float: none; display: inline !important;&quot;&gt;ProcessusCOMAvecServer&lt;/span&gt;" style="text;whiteSpace=wrap;html=1;align=center;" parent="1" vertex="1">
          <mxGeometry x="380" y="440" width="180" height="40" as="geometry" />
        </mxCell>
        <mxCell id="mHJllfPnjOfQcpnpI9sL-56" value="ProcessusRGB" style="whiteSpace=wrap;html=1;rounded=1;" parent="1" vertex="1">
          <mxGeometry x="185" y="370" width="120" height="30" as="geometry" />
        </mxCell>
        <mxCell id="mHJllfPnjOfQcpnpI9sL-60" value="" style="edgeStyle=segmentEdgeStyle;endArrow=classic;html=1;curved=0;rounded=0;endSize=8;startSize=8;sourcePerimeterSpacing=0;targetPerimeterSpacing=0;entryX=0.75;entryY=0;entryDx=0;entryDy=0;exitX=0.75;exitY=0;exitDx=0;exitDy=0;" parent="1" source="mHJllfPnjOfQcpnpI9sL-62" target="mHJllfPnjOfQcpnpI9sL-56" edge="1">
          <mxGeometry width="100" relative="1" as="geometry">
            <mxPoint x="330" y="330" as="sourcePoint" />
            <mxPoint x="380" y="350" as="targetPoint" />
            <Array as="points">
              <mxPoint x="275" y="330" />
            </Array>
          </mxGeometry>
        </mxCell>
        <mxCell id="mHJllfPnjOfQcpnpI9sL-61" value="&lt;span style=&quot;color: rgb(0, 0, 0); font-family: Helvetica; font-size: 12px; font-style: normal; font-variant-ligatures: normal; font-variant-caps: normal; font-weight: 400; letter-spacing: normal; orphans: 2; text-align: center; text-indent: 0px; text-transform: none; widows: 2; word-spacing: 0px; -webkit-text-stroke-width: 0px; background-color: rgb(251, 251, 251); text-decoration-thickness: initial; text-decoration-style: initial; text-decoration-color: initial; float: none; display: inline !important;&quot;&gt;ProcessusLectureNFC&lt;/span&gt;" style="text;whiteSpace=wrap;html=1;" parent="1" vertex="1">
          <mxGeometry x="290" y="305" width="150" height="40" as="geometry" />
        </mxCell>
        <mxCell id="mHJllfPnjOfQcpnpI9sL-62" value="&lt;span style=&quot;color: rgb(0, 0, 0); font-family: Helvetica; font-size: 12px; font-style: normal; font-variant-ligatures: normal; font-variant-caps: normal; font-weight: 400; letter-spacing: normal; orphans: 2; text-align: center; text-indent: 0px; text-transform: none; widows: 2; word-spacing: 0px; -webkit-text-stroke-width: 0px; background-color: rgb(251, 251, 251); text-decoration-thickness: initial; text-decoration-style: initial; text-decoration-color: initial; float: none; display: inline !important;&quot;&gt;ProcessusCOMAvecServer&lt;/span&gt;" style="text;whiteSpace=wrap;html=1;" parent="1" vertex="1">
          <mxGeometry x="290" y="330" width="180" height="40" as="geometry" />
        </mxCell>
        <mxCell id="mHJllfPnjOfQcpnpI9sL-63" value="&lt;span style=&quot;color: rgb(0, 0, 0); font-family: Helvetica; font-size: 12px; font-style: normal; font-variant-ligatures: normal; font-variant-caps: normal; font-weight: 400; letter-spacing: normal; orphans: 2; text-align: center; text-indent: 0px; text-transform: none; widows: 2; word-spacing: 0px; -webkit-text-stroke-width: 0px; background-color: rgb(251, 251, 251); text-decoration-thickness: initial; text-decoration-style: initial; text-decoration-color: initial; float: none; display: inline !important;&quot;&gt;ProcessusEnregistreur&lt;/span&gt;" style="text;whiteSpace=wrap;html=1;" parent="1" vertex="1">
          <mxGeometry x="290" y="290.02" width="150" height="40" as="geometry" />
        </mxCell>
        <mxCell id="mHJllfPnjOfQcpnpI9sL-64" value="&lt;span style=&quot;color: rgb(0, 0, 0); font-family: Helvetica; font-size: 12px; font-style: normal; font-variant-ligatures: normal; font-variant-caps: normal; font-weight: 400; letter-spacing: normal; orphans: 2; text-align: center; text-indent: 0px; text-transform: none; widows: 2; word-spacing: 0px; -webkit-text-stroke-width: 0px; background-color: rgb(251, 251, 251); text-decoration-thickness: initial; text-decoration-style: initial; text-decoration-color: initial; float: none; display: inline !important;&quot;&gt;ProcessusSpeaker&lt;/span&gt;" style="text;whiteSpace=wrap;html=1;" parent="1" vertex="1">
          <mxGeometry x="290" y="345" width="150" height="40" as="geometry" />
        </mxCell>
        <mxCell id="mHJllfPnjOfQcpnpI9sL-68" value="ProcessusSpeaker" style="rounded=1;whiteSpace=wrap;html=1;" parent="1" vertex="1">
          <mxGeometry x="-120" y="370" width="110" height="30" as="geometry" />
        </mxCell>
        <mxCell id="mHJllfPnjOfQcpnpI9sL-78" style="edgeStyle=orthogonalEdgeStyle;rounded=0;orthogonalLoop=1;jettySize=auto;html=1;entryX=0.5;entryY=0;entryDx=0;entryDy=0;" parent="1" source="mHJllfPnjOfQcpnpI9sL-73" target="mHJllfPnjOfQcpnpI9sL-52" edge="1">
          <mxGeometry relative="1" as="geometry" />
        </mxCell>
        <mxCell id="mHJllfPnjOfQcpnpI9sL-73" value="ProcessusEnregistreur" style="rounded=1;whiteSpace=wrap;html=1;" parent="1" vertex="1">
          <mxGeometry x="-260" y="370" width="130" height="30" as="geometry" />
        </mxCell>
        <mxCell id="mHJllfPnjOfQcpnpI9sL-80" style="edgeStyle=orthogonalEdgeStyle;rounded=0;orthogonalLoop=1;jettySize=auto;html=1;entryX=0.75;entryY=0;entryDx=0;entryDy=0;" parent="1" source="mHJllfPnjOfQcpnpI9sL-79" target="mHJllfPnjOfQcpnpI9sL-68" edge="1">
          <mxGeometry relative="1" as="geometry" />
        </mxCell>
        <mxCell id="mHJllfPnjOfQcpnpI9sL-79" value="&lt;span style=&quot;color: rgb(0, 0, 0); font-family: Helvetica; font-size: 12px; font-style: normal; font-variant-ligatures: normal; font-variant-caps: normal; font-weight: 400; letter-spacing: normal; orphans: 2; text-indent: 0px; text-transform: none; widows: 2; word-spacing: 0px; -webkit-text-stroke-width: 0px; background-color: rgb(251, 251, 251); text-decoration-thickness: initial; text-decoration-style: initial; text-decoration-color: initial; float: none; display: inline !important;&quot;&gt;ProcessusCOMAvecServer&lt;/span&gt;" style="text;whiteSpace=wrap;html=1;align=center;" parent="1" vertex="1">
          <mxGeometry x="-140" y="220" width="150" height="40" as="geometry" />
        </mxCell>
      </root>
    </mxGraphModel>
  </diagram>
</mxfile>
